<svg width="197" height="43" viewBox="0 0 197 43" fill="none" xmlns="http://www.w3.org/2000/svg">
<path d="M0.817793 42.275C1.84446 37.105 2.83446 32.0633 3.78779 27.15C4.15446 25.0967 4.53946 22.9517 4.94279 20.715C5.38279 18.4417 5.78613 16.2233 6.15279 14.06C6.51946 11.86 6.84946 9.75167 7.14279 7.735C7.47279 5.68167 7.72946 3.81167 7.91279 2.125C9.04946 2.05166 10.1495 1.97833 11.2128 1.905C12.1661 1.83167 13.1378 1.77667 14.1278 1.74C15.1178 1.66666 15.9978 1.59333 16.7678 1.52C17.2445 4.34333 17.6661 7.03833 18.0328 9.605C18.2161 10.705 18.3995 11.86 18.5828 13.07C18.8028 14.2433 19.0045 15.38 19.1878 16.48C19.3711 17.58 19.5545 18.6433 19.7378 19.67C19.9211 20.66 20.1045 21.54 20.2878 22.31C20.4345 21.54 20.5995 20.66 20.7828 19.67C20.9661 18.6433 21.1678 17.58 21.3878 16.48C21.6078 15.3433 21.8278 14.1883 22.0478 13.015C22.3045 11.8417 22.5428 10.705 22.7628 9.605C23.3128 7.03833 23.8811 4.36166 24.4678 1.575L31.1778 0.749997C29.9311 6.25 28.8311 11.4567 27.8778 16.37C27.4378 18.4967 26.9978 20.6417 26.5578 22.805C26.1545 24.9683 25.7695 27.0583 25.4028 29.075C25.0361 31.0917 24.7245 32.9617 24.4678 34.685C24.2111 36.3717 24.0095 37.8017 23.8628 38.975C23.7528 38.975 23.3128 39.0667 22.5428 39.25C21.8095 39.3967 20.9478 39.58 19.9578 39.8C19.0045 40.02 18.0328 40.2583 17.0428 40.515C16.0895 40.735 15.3745 40.9183 14.8978 41.065C14.6411 38.095 14.3661 35.2717 14.0728 32.595C13.9628 31.4583 13.8345 30.285 13.6878 29.075C13.5411 27.865 13.3945 26.71 13.2478 25.61C13.1378 24.51 13.0095 23.4833 12.8628 22.53C12.7528 21.54 12.6428 20.715 12.5328 20.055C12.4228 20.715 12.2761 21.5217 12.0928 22.475C11.9095 23.4283 11.7261 24.455 11.5428 25.555C11.3595 26.6183 11.1761 27.7367 10.9928 28.91C10.8095 30.0467 10.6078 31.165 10.3878 32.265C9.91113 34.8683 9.39779 37.5817 8.84779 40.405L0.817793 42.275ZM25.8497 42.055L33.0547 2.95L50.4347 1.465C50.178 2.27166 49.958 3.09666 49.7747 3.94C49.5913 4.63666 49.408 5.37 49.2247 6.14C49.078 6.87333 48.9497 7.53333 48.8397 8.12C48.473 8.15667 47.9413 8.19333 47.2447 8.23C46.5847 8.23 45.8697 8.24833 45.0997 8.285C44.3297 8.285 43.5413 8.285 42.7347 8.285C41.9647 8.285 41.2863 8.285 40.6997 8.285L38.7747 18.13C39.9113 18.0567 40.9747 18.0017 41.9647 17.965C42.7713 17.9283 43.5963 17.91 44.4397 17.91C45.283 17.91 45.9063 17.8917 46.3097 17.855C46.163 18.8817 46.0163 19.89 45.8697 20.88C45.7597 21.87 45.613 22.8783 45.4297 23.905C45.063 23.9417 44.458 23.9783 43.6147 24.015C42.808 24.015 41.983 24.0333 41.1397 24.07C40.1863 24.1067 39.1413 24.1433 38.0047 24.18L36.1347 34.3L44.1647 33.035L43.6147 39.305L25.8497 42.055ZM46.4098 42.22L50.5898 3.17C52.3131 3.09667 53.9265 2.93167 55.4298 2.675C56.9698 2.38166 58.4915 2.18 59.9948 2.07C59.9948 2.10667 59.9398 2.49167 59.8298 3.225C59.7198 3.92166 59.5731 4.85666 59.3898 6.03C59.2065 7.16666 59.0048 8.46833 58.7848 9.935C58.5648 11.365 58.2348 13.345 57.7948 15.875C57.3915 18.405 56.8415 21.9067 56.1448 26.38H56.9698C57.9231 23.0067 58.7115 20.2567 59.3348 18.13C59.9581 15.9667 60.4531 14.225 60.8198 12.905C61.2231 11.5483 61.5898 10.2467 61.9198 9C62.2865 7.75333 62.6165 6.59833 62.9098 5.535C63.2398 4.47166 63.4965 3.57333 63.6798 2.84H64.1748C64.8348 2.84 65.4948 2.80333 66.1548 2.73C66.8515 2.65667 67.4931 2.58333 68.0798 2.51C68.7031 2.4 69.3448 2.27167 70.0048 2.125C69.9315 2.455 69.8398 3.13333 69.7298 4.16C69.6565 5.18667 69.5465 6.43333 69.3998 7.9C69.2531 9.33 69.1065 10.925 68.9598 12.685C68.8131 14.4083 68.6665 16.1133 68.5198 17.8C68.3731 19.45 68.2265 21.0267 68.0798 22.53C67.9698 24.0333 67.8598 25.3167 67.7498 26.38H68.7398L73.9648 2.73C75.2115 2.54666 76.4398 2.38166 77.6498 2.235C78.7131 2.08833 79.8131 1.94166 80.9498 1.795C82.0865 1.64833 83.0948 1.48333 83.9748 1.3C83.4248 2.84 82.8748 4.56333 82.3248 6.47C81.7748 8.34 81.2065 10.32 80.6198 12.41C80.0331 14.5 79.4648 16.6083 78.9148 18.735C78.4015 20.8617 77.8881 22.915 77.3748 24.895C76.2015 29.5883 75.0648 34.41 73.9648 39.36L61.5348 41.45L63.9548 20.22H63.2948L57.8498 40.185L46.4098 42.22ZM101.552 28.415C101.552 30.4683 101.149 32.3383 100.342 34.025C99.572 35.675 98.5087 37.105 97.152 38.315C95.832 39.525 94.2553 40.46 92.422 41.12C90.6253 41.78 88.682 42.11 86.592 42.11C85.1253 42.11 83.6587 41.725 82.192 40.955C80.7253 40.1483 79.3137 38.8833 77.957 37.16L82.027 29.185C82.2837 29.6617 82.6687 30.1567 83.182 30.67C83.6953 31.1467 84.2637 31.5683 84.887 31.935C85.547 32.3017 86.1887 32.6133 86.812 32.87C87.472 33.09 88.0587 33.2 88.572 33.2C89.012 33.2 89.4703 33.1267 89.947 32.98C90.4237 32.8333 90.8637 32.6133 91.267 32.32C91.6703 32.0267 91.982 31.6967 92.202 31.33C92.4587 30.9267 92.587 30.4683 92.587 29.955C92.587 29.075 92.2937 28.2683 91.707 27.535C91.157 26.765 90.4603 26.05 89.617 25.39C88.7737 24.6933 87.857 23.9967 86.867 23.3C85.877 22.6033 84.9603 21.87 84.117 21.1C83.3103 20.33 82.6137 19.4683 82.027 18.515C81.4403 17.5617 81.147 16.4983 81.147 15.325C81.147 13.4183 81.7153 11.64 82.852 9.99C83.9887 8.34 85.4003 6.92833 87.087 5.755C88.8103 4.545 90.6803 3.59167 92.697 2.895C94.7137 2.19833 96.6203 1.85 98.417 1.85C99.407 1.85 100.342 1.97833 101.222 2.235C102.102 2.455 102.854 2.84 103.477 3.39C104.137 3.90333 104.65 4.56333 105.017 5.37C105.42 6.17666 105.622 7.185 105.622 8.395C105.622 8.90833 105.567 9.42167 105.457 9.935C105.384 10.4483 105.31 10.9983 105.237 11.585L97.262 13.895C97.3353 13.6017 97.3903 13.3083 97.427 13.015C97.5003 12.7217 97.537 12.4283 97.537 12.135C97.537 11.035 97.3353 10.2467 96.932 9.77C96.5653 9.25667 96.0703 9 95.447 9C95.1537 9 94.787 9.11 94.347 9.33C93.9437 9.55 93.522 9.84333 93.082 10.21C92.6787 10.54 92.3303 10.9433 92.037 11.42C91.7437 11.8967 91.597 12.41 91.597 12.96C91.597 13.84 91.8353 14.5733 92.312 15.16C92.8253 15.7467 93.4487 16.2967 94.182 16.81C94.9153 17.3233 95.7037 17.855 96.547 18.405C97.427 18.9183 98.2337 19.5967 98.967 20.44C99.7003 21.2833 100.305 22.3467 100.782 23.63C101.295 24.8767 101.552 26.4717 101.552 28.415ZM101.26 42.055L108.465 2.95L125.845 1.465C125.588 2.27166 125.368 3.09666 125.185 3.94C125.001 4.63666 124.818 5.37 124.635 6.14C124.488 6.87333 124.36 7.53333 124.25 8.12C123.883 8.15667 123.351 8.19333 122.655 8.23C121.995 8.23 121.28 8.24833 120.51 8.285C119.74 8.285 118.951 8.285 118.145 8.285C117.375 8.285 116.696 8.285 116.11 8.285L114.185 18.13C115.321 18.0567 116.385 18.0017 117.375 17.965C118.181 17.9283 119.006 17.91 119.85 17.91C120.693 17.91 121.316 17.8917 121.72 17.855C121.573 18.8817 121.426 19.89 121.28 20.88C121.17 21.87 121.023 22.8783 120.84 23.905C120.473 23.9417 119.868 23.9783 119.025 24.015C118.218 24.015 117.393 24.0333 116.55 24.07C115.596 24.1067 114.551 24.1433 113.415 24.18L111.545 34.3L119.575 33.035L119.025 39.305L101.26 42.055ZM119.785 42.055C120.775 37.1783 121.728 32.4117 122.645 27.755C122.975 25.775 123.342 23.7217 123.745 21.595C124.148 19.4317 124.515 17.305 124.845 15.215C125.212 13.0883 125.542 11.0533 125.835 9.11C126.165 7.13 126.422 5.33333 126.605 3.72C128.695 3.06 130.95 2.58333 133.37 2.29C135.79 1.96 138.192 1.795 140.575 1.795C142.005 1.795 143.178 1.96 144.095 2.29C145.048 2.62 145.782 3.09666 146.295 3.72C146.845 4.30667 147.23 5.00333 147.45 5.81C147.67 6.61666 147.78 7.515 147.78 8.505C147.78 9.97167 147.523 11.42 147.01 12.85C146.497 14.2433 145.8 15.5817 144.92 16.865C144.077 18.1117 143.087 19.2667 141.95 20.33C140.85 21.3567 139.658 22.2 138.375 22.86C139.035 24.3267 139.732 25.94 140.465 27.7C141.235 29.4233 141.95 31.0733 142.61 32.65C143.343 34.4833 144.095 36.3167 144.865 38.15L136.34 41.12C135.607 38.7733 134.947 36.5733 134.36 34.52C134.103 33.6767 133.847 32.815 133.59 31.935C133.333 31.0183 133.095 30.1567 132.875 29.35C132.655 28.5433 132.472 27.8283 132.325 27.205C132.178 26.545 132.087 26.0133 132.05 25.61L131.335 25.83C131.115 27.0033 130.84 28.3783 130.51 29.955C130.217 31.5317 129.942 33.0533 129.685 34.52C129.355 36.2433 129.025 37.985 128.695 39.745L119.785 42.055ZM132.71 18.185C133.407 18.1117 134.25 17.8183 135.24 17.305C136.267 16.7917 137.238 16.1867 138.155 15.49C139.072 14.7567 139.86 14.005 140.52 13.235C141.18 12.465 141.51 11.7867 141.51 11.2C141.51 10.7967 141.382 10.485 141.125 10.265C140.868 10.0083 140.502 9.825 140.025 9.715C139.585 9.56833 139.09 9.47667 138.54 9.44C137.99 9.40333 137.422 9.385 136.835 9.385C136.432 9.385 136.01 9.40333 135.57 9.44C135.167 9.44 134.8 9.44 134.47 9.44L132.71 18.185ZM153.353 40.9C153.023 40.9 152.363 40.955 151.373 41.065C150.42 41.1383 149.43 41.2483 148.403 41.395C147.377 41.505 146.442 41.615 145.598 41.725C144.792 41.835 144.352 41.9083 144.278 41.945C144.645 40.3683 145.012 38.6267 145.378 36.72C145.782 34.7767 146.185 32.76 146.588 30.67C146.992 28.5433 147.377 26.3983 147.743 24.235C148.11 22.0717 148.458 19.9817 148.788 17.965C149.558 13.2717 150.328 8.45 151.098 3.5L159.678 2.125C158.835 7.03833 158.01 11.86 157.203 16.59C156.873 18.6067 156.525 20.6967 156.158 22.86C155.828 25.0233 155.48 27.1683 155.113 29.295C154.783 31.4217 154.472 33.4933 154.178 35.51C153.885 37.49 153.61 39.2867 153.353 40.9ZM175.362 40.9C174.445 41.0467 173.437 41.2117 172.337 41.395C171.237 41.5783 170.247 41.7433 169.367 41.89C169.513 40.68 169.66 39.4883 169.807 38.315C169.917 37.2883 170.008 36.2617 170.082 35.235C170.192 34.2083 170.283 33.3283 170.357 32.595H165.572L163.372 40.515C162.565 40.625 161.612 40.7533 160.512 40.9C159.412 41.01 158.385 41.12 157.432 41.23C156.258 41.3767 155.103 41.5233 153.967 41.67C155.433 36.7933 156.882 31.99 158.312 27.26C158.898 25.28 159.503 23.2083 160.127 21.045C160.787 18.8817 161.428 16.7367 162.052 14.61C162.712 12.4467 163.335 10.375 163.922 8.395C164.508 6.415 165.022 4.6 165.462 2.95C167.955 2.76666 170.485 2.54666 173.052 2.29C175.655 2.03333 178.185 1.685 180.642 1.245C180.532 2.41833 180.403 3.885 180.257 5.645C180.147 7.36833 180.037 9.25667 179.927 11.31C179.817 13.3633 179.707 15.5083 179.597 17.745C179.487 19.9817 179.377 22.1817 179.267 24.345C179.083 29.405 178.882 34.7767 178.662 40.46C177.562 40.6433 176.462 40.79 175.362 40.9ZM166.892 27.095C167.038 27.095 167.295 27.095 167.662 27.095C168.065 27.0583 168.468 27.04 168.872 27.04C169.312 27.0033 169.715 26.985 170.082 26.985C170.448 26.9483 170.705 26.9117 170.852 26.875C170.852 26.655 170.87 26.2883 170.907 25.775C170.98 25.225 171.035 24.62 171.072 23.96C171.145 23.2633 171.218 22.5117 171.292 21.705C171.365 20.8983 171.438 20.11 171.512 19.34C171.658 17.47 171.842 15.4533 172.062 13.29L172.392 8.505L171.567 8.56L170.302 13.29L166.892 27.095ZM194.096 40.24C192.959 40.24 191.749 40.2767 190.466 40.35C189.219 40.4233 187.954 40.5333 186.671 40.68C185.387 40.8267 184.122 41.0283 182.876 41.285C181.666 41.505 180.566 41.78 179.576 42.11C179.796 40.46 180.052 38.6267 180.346 36.61C180.639 34.5933 180.969 32.5033 181.336 30.34C181.739 28.1767 182.124 25.995 182.491 23.795C182.894 21.595 183.297 19.4867 183.701 17.47C184.617 12.6667 185.589 7.77166 186.616 2.785L196.241 1.52C195.251 5.77333 194.297 9.91667 193.381 13.95C192.977 15.6733 192.574 17.47 192.171 19.34C191.767 21.1733 191.382 22.97 191.016 24.73C190.649 26.49 190.319 28.195 190.026 29.845C189.732 31.495 189.494 32.9617 189.311 34.245C190.227 34.1717 191.199 34.135 192.226 34.135C193.289 34.0983 194.224 34.08 195.031 34.08C195.067 34.7767 195.122 35.4733 195.196 36.17C195.269 36.83 195.342 37.435 195.416 37.985C195.526 38.535 195.599 39.03 195.636 39.47C195.709 39.8733 195.764 40.1483 195.801 40.295C195.507 40.295 195.214 40.295 194.921 40.295C194.664 40.2583 194.389 40.24 194.096 40.24Z" fill="#FF6F4F"/>
</svg>
