<svg width="30" height="30" viewBox="0 0 30 30" fill="none" xmlns="http://www.w3.org/2000/svg">
<path d="M15.6424 0.154314C15.3989 0.0224343 15.1317 -0.0262008 14.8683 0.0133715C14.6048 0.0529438 14.3544 0.179306 14.1427 0.379562L6.97386 7.4749H1.49975C1.102 7.4749 0.720527 7.67266 0.439268 8.02468C0.158009 8.3767 0 8.85414 0 9.35197V20.6144C0 21.1122 0.158009 21.5897 0.439268 21.9417C0.720527 22.2937 1.102 22.4915 1.49975 22.4915H6.97386L14.0677 29.5868C14.3316 29.8518 14.6593 29.9973 14.9975 29.9998C15.2216 30.0044 15.443 29.9399 15.6424 29.8121C15.8977 29.6599 16.1133 29.4206 16.2646 29.1217C16.4158 28.8228 16.4965 28.4765 16.4973 28.1227V1.84368C16.4965 1.48988 16.4158 1.14356 16.2646 0.844661C16.1133 0.545761 15.8977 0.306448 15.6424 0.154314ZM13.4978 24.2184L8.42862 19.1503C8.16476 18.8853 7.83707 18.7398 7.49877 18.7373H2.99951V11.229H7.49877C7.83707 11.2266 8.16476 11.0811 8.42862 10.8161L13.4978 5.74799V24.2184ZM26.4857 4.35896C26.2033 4.0055 25.8202 3.80692 25.4208 3.80692C25.0215 3.80692 24.6384 4.0055 24.356 4.35896C24.0736 4.71242 23.915 5.19181 23.915 5.69168C23.915 6.19155 24.0736 6.67094 24.356 7.0244C25.2392 8.128 25.9292 9.44945 26.3824 10.9048C26.8355 12.3601 27.0419 13.9175 26.9883 15.478C26.9347 17.0385 26.6223 18.568 26.071 19.9693C25.5198 21.3706 24.7417 22.613 23.7861 23.6177C23.554 23.8661 23.3881 24.1971 23.3104 24.5667C23.2327 24.9363 23.2469 25.3267 23.3513 25.6859C23.4556 26.045 23.6451 26.3557 23.8943 26.5765C24.1435 26.7973 24.4406 26.9176 24.746 26.9214C25.0964 26.9222 25.436 26.7695 25.7058 26.4896C26.982 25.1518 28.0218 23.4963 28.7591 21.6283C29.4964 19.7603 29.915 17.7207 29.9883 15.6392C30.0617 13.5577 29.7882 11.4799 29.1851 9.53788C28.5821 7.59588 27.6628 5.83218 26.4857 4.35896ZM22.2414 9.67107C22.1015 9.49606 21.9355 9.35723 21.7528 9.26251C21.5701 9.16779 21.3743 9.11904 21.1765 9.11904C20.9788 9.11904 20.783 9.16779 20.6003 9.26251C20.4176 9.35723 20.2515 9.49606 20.1117 9.67107C19.9719 9.84609 19.861 10.0539 19.7853 10.2825C19.7096 10.5112 19.6706 10.7563 19.6706 11.0038C19.6706 11.2513 19.7096 11.4964 19.7853 11.7251C19.861 11.9537 19.9719 12.1615 20.1117 12.3365C20.675 13.0373 20.9932 13.9891 20.9966 14.9832C20.9969 15.5301 20.9018 16.0704 20.7179 16.5665C20.534 17.0626 20.2657 17.5024 19.9317 17.8551C19.7799 18.0127 19.6543 18.2062 19.5623 18.4246C19.4703 18.643 19.4136 18.882 19.3955 19.1278C19.3774 19.3737 19.3982 19.6216 19.4568 19.8573C19.5153 20.0931 19.6105 20.3121 19.7368 20.5018C19.8637 20.6905 20.0192 20.846 20.1942 20.9595C20.3692 21.0729 20.5604 21.1421 20.7568 21.163C20.9532 21.184 21.151 21.1562 21.3388 21.0814C21.5266 21.0066 21.7008 20.8862 21.8514 20.727C22.522 20.0233 23.0614 19.1446 23.4319 18.1523C23.8024 17.1601 23.995 16.0784 23.9961 14.9832C23.9876 12.9937 23.3579 11.0872 22.2414 9.67107Z" fill="#FF6F4F"/>
</svg>
