<svg width="15" height="15" viewBox="0 0 15 15" fill="none" xmlns="http://www.w3.org/2000/svg">
<path d="M1.07129 7.49986C1.07129 11.05 3.94968 13.9284 7.49986 13.9284C11.05 13.9284 13.9284 11.05 13.9284 7.49986C13.9284 3.94968 11.05 1.07129 7.49986 1.07129C3.94968 1.07129 1.07129 3.94968 1.07129 7.49986ZM8.1695 4.28557C8.1695 4.46318 8.09895 4.6335 7.97337 4.75908C7.84779 4.88467 7.67746 4.95522 7.49986 4.95522C7.32226 4.95522 7.15193 4.88467 7.02635 4.75908C6.90077 4.6335 6.83022 4.46318 6.83022 4.28557C6.83022 4.10797 6.90077 3.93765 7.02635 3.81207C7.15193 3.68648 7.32226 3.61593 7.49986 3.61593C7.67746 3.61593 7.84779 3.68648 7.97337 3.81207C8.09895 3.93765 8.1695 4.10797 8.1695 4.28557ZM7.49986 5.89272C7.64194 5.89272 7.7782 5.94916 7.87867 6.04962C7.97913 6.15009 8.03557 6.28635 8.03557 6.42843V10.7141C8.03557 10.8562 7.97913 10.9925 7.87867 11.093C7.7782 11.1934 7.64194 11.2499 7.49986 11.2499C7.35778 11.2499 7.22152 11.1934 7.12105 11.093C7.02059 10.9925 6.96415 10.8562 6.96415 10.7141V6.42843C6.96415 6.28635 7.02059 6.15009 7.12105 6.04962C7.22152 5.94916 7.35778 5.89272 7.49986 5.89272Z" fill="#939D9E"/>
</svg>
