<svg width="28" height="28" viewBox="0 0 28 28" fill="none" xmlns="http://www.w3.org/2000/svg">
<path d="M14.1071 7.00046C11.2912 7.00046 9 9.29171 9 12.1076V15.8219C9 18.6383 11.2912 20.929 14.1071 20.929C15.3408 20.929 16.4736 20.4894 17.3571 19.7581L18.4009 20.7944C18.4436 20.8396 18.495 20.8757 18.552 20.9006C18.609 20.9256 18.6704 20.9388 18.7326 20.9395C18.7948 20.9403 18.8565 20.9285 18.9141 20.9049C18.9716 20.8814 19.0239 20.8465 19.0677 20.8023C19.1115 20.7582 19.146 20.7056 19.1691 20.6479C19.1922 20.5902 19.2035 20.5284 19.2023 20.4662C19.2011 20.404 19.1874 20.3427 19.162 20.2859C19.1366 20.2291 19.1001 20.178 19.0546 20.1356L18.015 19.1035C18.7901 18.1856 19.215 17.0228 19.2143 15.8214V12.1071C19.2143 9.29125 16.923 7.00046 14.1071 7.00046ZM18.2857 15.8219C18.2857 16.8155 17.9356 17.7287 17.3539 18.447L15.9197 17.023C15.8315 16.9408 15.7147 16.8962 15.5941 16.8985C15.4735 16.9009 15.3586 16.9501 15.2737 17.0357C15.1887 17.1213 15.1404 17.2366 15.139 17.3572C15.1376 17.4778 15.1831 17.5942 15.266 17.6818L16.6928 19.0979C15.9577 19.6825 15.0463 20.0008 14.1071 20.0009C11.8029 20.0009 9.92857 18.1266 9.92857 15.8224V12.1081C9.92857 9.80429 11.8029 7.9295 14.1071 7.9295C16.4114 7.9295 18.2857 9.80429 18.2857 12.1081V15.8219Z" fill="#FF6F4F" stroke="#FF6F4F" stroke-width="2" stroke-linejoin="round"/>
<path d="M14 27C21.1797 27 27 21.1797 27 14C27 6.8203 21.1797 1 14 1C6.8203 1 1 6.8203 1 14C1 21.1797 6.8203 27 14 27Z" stroke="#FF6F4F" stroke-width="2" stroke-linejoin="round"/>
</svg>
