<svg width="32" height="28" viewBox="0 0 32 28" fill="none" xmlns="http://www.w3.org/2000/svg">
<path d="M0.435547 24.2571C0.435547 22.467 1.25969 20.7501 2.72668 19.4843C4.19367 18.2185 6.18333 17.5073 8.25797 17.5073H23.9028C25.9774 17.5073 27.9671 18.2185 29.4341 19.4843C30.9011 20.7501 31.7252 22.467 31.7252 24.2571C31.7252 25.1522 31.3131 26.0106 30.5797 26.6436C29.8462 27.2765 28.8513 27.632 27.814 27.632H4.34676C3.30944 27.632 2.31461 27.2765 1.58111 26.6436C0.847619 26.0106 0.435547 25.1522 0.435547 24.2571Z" fill="#939D9E"/>
<path d="M16.0807 10.7566C19.3208 10.7566 21.9475 8.49006 21.9475 5.6942C21.9475 2.89833 19.3208 0.631836 16.0807 0.631836C12.8405 0.631836 10.2139 2.89833 10.2139 5.6942C10.2139 8.49006 12.8405 10.7566 16.0807 10.7566Z" fill="#939D9E"/>
</svg>
