<svg width="27" height="27" viewBox="0 0 27 27" fill="none" xmlns="http://www.w3.org/2000/svg">
<path d="M18.6422 20.6851C16.3201 22.4877 13.3984 23.3375 10.4718 23.0616C7.54525 22.7858 4.83379 21.4049 2.88938 19.2002C0.944963 16.9955 -0.0862465 14.1326 0.00565445 11.1943C0.0975553 8.25599 1.30566 5.46315 3.38405 3.38426C5.4628 1.30574 8.25547 0.0975615 11.1936 0.00565481C14.1317 -0.0862519 16.9944 0.945024 19.199 2.88956C21.4036 4.8341 22.7843 7.54573 23.0602 10.4725C23.336 13.3992 22.4862 16.3211 20.6838 18.6434L26.539 24.499C26.7292 24.6755 26.8682 24.9001 26.9414 25.1491C27.0146 25.398 27.0193 25.6621 26.955 25.9135C26.8908 26.165 26.7599 26.3944 26.5761 26.5776C26.3924 26.7609 26.1627 26.8912 25.9111 26.9548C25.66 27.0192 25.3962 27.0147 25.1474 26.9418C24.8986 26.869 24.6741 26.7304 24.4974 26.5407L18.6422 20.6851ZM20.2216 11.5551C20.2387 10.4063 20.0272 9.26563 19.5995 8.19934C19.1718 7.13306 18.5363 6.16248 17.73 5.34406C16.9238 4.52564 15.9628 3.87572 14.9031 3.43211C13.8434 2.9885 12.7061 2.76005 11.5572 2.76005C10.4084 2.76005 9.27108 2.9885 8.21136 3.43211C7.15164 3.87572 6.1907 4.52564 5.38445 5.34406C4.57819 6.16248 3.94271 7.13306 3.51497 8.19934C3.08724 9.26563 2.87578 10.4063 2.89291 11.5551C2.92684 13.8308 3.85461 16.0018 5.4758 17.5991C7.09698 19.1964 9.28144 20.0917 11.5572 20.0917C13.833 20.0917 16.0175 19.1964 17.6387 17.5991C19.2599 16.0018 20.1876 13.8308 20.2216 11.5551Z" fill="#939D9E"/>
</svg>
