<svg width="28" height="28" viewBox="0 0 28 28" fill="none" xmlns="http://www.w3.org/2000/svg">
<path d="M14 27C21.1797 27 27 21.1797 27 14C27 6.8203 21.1797 1 14 1C6.8203 1 1 6.8203 1 14C1 21.1797 6.8203 27 14 27Z" stroke="#FF6F4F" stroke-width="2" stroke-linejoin="round"/>
<path d="M14.0002 7.04136C11.1843 7.04136 8.89307 9.33261 8.89307 12.1485V15.8628C8.89307 18.6791 11.1843 20.9699 14.0002 20.9699C15.2338 20.9699 16.3667 20.5303 17.2502 19.799L18.2939 20.8353C18.3367 20.8805 18.3881 20.9166 18.4451 20.9415C18.502 20.9665 18.5635 20.9797 18.6257 20.9804C18.6879 20.9812 18.7496 20.9694 18.8071 20.9458C18.8647 20.9223 18.9169 20.8874 18.9607 20.8432C19.0046 20.7991 19.0391 20.7465 19.0622 20.6888C19.0853 20.6311 19.0966 20.5693 19.0954 20.5071C19.0941 20.4449 19.0804 20.3836 19.0551 20.3268C19.0297 20.27 18.9932 20.2189 18.9476 20.1765L17.9081 19.1444C18.6832 18.2265 19.1081 17.0637 19.1074 15.8623V12.148C19.1074 9.33214 16.8161 7.04136 14.0002 7.04136ZM18.1788 15.8628C18.1788 16.8564 17.8287 17.7696 17.247 18.4879L15.8128 17.0639C15.7245 16.9817 15.6078 16.937 15.4872 16.9394C15.3666 16.9418 15.2517 16.991 15.1667 17.0766C15.0818 17.1622 15.0335 17.2775 15.0321 17.3981C15.0306 17.5187 15.0762 17.6351 15.1591 17.7227L16.5858 19.1388C15.8508 19.7234 14.9394 20.0417 14.0002 20.0418C11.696 20.0418 9.82164 18.1675 9.82164 15.8633V12.149C9.82164 9.84518 11.696 7.97039 14.0002 7.97039C16.3045 7.97039 18.1788 9.84518 18.1788 12.149V15.8628Z" fill="#FF6F4F" stroke="#FF6F4F" stroke-width="2" stroke-linejoin="round"/>
</svg>
