<svg width="199" height="109" viewBox="0 0 199 109" fill="none" xmlns="http://www.w3.org/2000/svg">
<rect width="199" height="109" fill="#898989"/>
<path d="M59.3302 63.125C59.7968 60.775 60.2468 58.4833 60.6802 56.25C60.8468 55.3167 61.0218 54.3417 61.2052 53.325C61.4052 52.2917 61.5885 51.2833 61.7552 50.3C61.9218 49.3 62.0718 48.3417 62.2052 47.425C62.3552 46.4917 62.4718 45.6417 62.5552 44.875C63.0718 44.8417 63.5718 44.8083 64.0552 44.775C64.4885 44.7417 64.9302 44.7167 65.3802 44.7C65.8302 44.6667 66.2302 44.6333 66.5802 44.6C66.7968 45.8833 66.9885 47.1083 67.1552 48.275C67.2385 48.775 67.3218 49.3 67.4052 49.85C67.5052 50.3833 67.5968 50.9 67.6802 51.4C67.7635 51.9 67.8468 52.3833 67.9302 52.85C68.0135 53.3 68.0968 53.7 68.1802 54.05C68.2468 53.7 68.3218 53.3 68.4052 52.85C68.4885 52.3833 68.5802 51.9 68.6802 51.4C68.7802 50.8833 68.8802 50.3583 68.9802 49.825C69.0968 49.2917 69.2052 48.775 69.3052 48.275C69.5552 47.1083 69.8135 45.8917 70.0802 44.625L73.1302 44.25C72.5635 46.75 72.0635 49.1167 71.6302 51.35C71.4302 52.3167 71.2302 53.2917 71.0302 54.275C70.8468 55.2583 70.6718 56.2083 70.5052 57.125C70.3385 58.0417 70.1968 58.8917 70.0802 59.675C69.9635 60.4417 69.8718 61.0917 69.8052 61.625C69.7552 61.625 69.5552 61.6667 69.2052 61.75C68.8718 61.8167 68.4802 61.9 68.0302 62C67.5968 62.1 67.1552 62.2083 66.7052 62.325C66.2718 62.425 65.9468 62.5083 65.7302 62.575C65.6135 61.225 65.4885 59.9417 65.3552 58.725C65.3052 58.2083 65.2468 57.675 65.1802 57.125C65.1135 56.575 65.0468 56.05 64.9802 55.55C64.9302 55.05 64.8718 54.5833 64.8052 54.15C64.7552 53.7 64.7052 53.325 64.6552 53.025C64.6052 53.325 64.5385 53.6917 64.4552 54.125C64.3718 54.5583 64.2885 55.025 64.2052 55.525C64.1218 56.0083 64.0385 56.5167 63.9552 57.05C63.8718 57.5667 63.7802 58.075 63.6802 58.575C63.4635 59.7583 63.2302 60.9917 62.9802 62.275L59.3302 63.125ZM84.5083 49.475C84.5083 50.8417 84.3583 52.1333 84.0583 53.35C83.775 54.55 83.3916 55.6583 82.9083 56.675C82.425 57.675 81.8583 58.575 81.2083 59.375C80.575 60.1583 79.9083 60.8333 79.2083 61.4C78.5083 61.95 77.8 62.375 77.0833 62.675C76.3666 62.9583 75.6833 63.1 75.0333 63.1C74.4833 63.1 73.9833 63 73.5333 62.8C73.0833 62.5833 72.6916 62.275 72.3583 61.875C72.025 61.4583 71.7583 60.9333 71.5583 60.3C71.375 59.65 71.2833 58.875 71.2833 57.975C71.2833 57.0417 71.4 56.0583 71.6333 55.025C71.8666 53.9917 72.1833 52.9667 72.5833 51.95C72.9833 50.9333 73.475 49.9667 74.0583 49.05C74.6416 48.1333 75.2833 47.325 75.9833 46.625C76.6833 45.9083 77.4333 45.3417 78.2333 44.925C79.0333 44.5083 79.8666 44.3 80.7333 44.3C81.4833 44.3 82.1 44.4583 82.5833 44.775C83.0833 45.075 83.4666 45.475 83.7333 45.975C84.0166 46.4583 84.2166 47.0083 84.3333 47.625C84.45 48.2417 84.5083 48.8583 84.5083 49.475ZM75.0083 57.325C75.0083 57.5083 75.0416 57.7 75.1083 57.9C75.175 58.1 75.2666 58.275 75.3833 58.425C75.5 58.575 75.6416 58.7083 75.8083 58.825C75.9916 58.925 76.1833 58.975 76.3833 58.975C77.1333 58.975 77.8 58.7167 78.3833 58.2C78.9666 57.6833 79.45 57.05 79.8333 56.3C80.2166 55.55 80.5083 54.75 80.7083 53.9C80.925 53.05 81.0333 52.275 81.0333 51.575C81.0333 51.375 81.0166 51.1583 80.9833 50.925C80.9666 50.6917 80.9166 50.475 80.8333 50.275C80.7666 50.075 80.65 49.9083 80.4833 49.775C80.3333 49.625 80.125 49.55 79.8583 49.55C79.325 49.55 78.8333 49.6833 78.3833 49.95C77.9333 50.2167 77.525 50.575 77.1583 51.025C76.8083 51.4583 76.5 51.9583 76.2333 52.525C75.9666 53.075 75.7333 53.6417 75.5333 54.225C75.35 54.7917 75.2166 55.35 75.1333 55.9C75.05 56.45 75.0083 56.925 75.0083 57.325ZM91.6702 62.5C91.5202 62.5 91.2285 62.525 90.7952 62.575C90.3619 62.6083 89.9119 62.6583 89.4452 62.725C88.9785 62.775 88.5535 62.825 88.1702 62.875C87.8035 62.925 87.6035 62.9583 87.5702 62.975C87.7702 62.2583 87.9702 61.4667 88.1702 60.6C88.3702 59.7167 88.5702 58.8 88.7702 57.85C88.9869 56.8833 89.1869 55.9083 89.3702 54.925C89.5702 53.9417 89.7619 52.9917 89.9452 52.075C90.3619 49.9417 90.7702 47.75 91.1702 45.5L95.0702 44.875C94.6369 47.1083 94.2035 49.3 93.7702 51.45C93.5869 52.3667 93.3952 53.3167 93.1952 54.3C93.0119 55.2833 92.8285 56.2583 92.6452 57.225C92.4785 58.1917 92.3035 59.1333 92.1202 60.05C91.9535 60.95 91.8035 61.7667 91.6702 62.5ZM91.9751 62.85C92.7084 60.6333 93.4084 58.4583 94.0751 56.325C94.3584 55.425 94.6501 54.4833 94.9501 53.5C95.2501 52.5167 95.5501 51.5417 95.8501 50.575C96.1501 49.6083 96.4251 48.675 96.6751 47.775C96.9418 46.875 97.1751 46.0417 97.3751 45.275C98.2918 45.275 99.1584 45.225 99.9751 45.125C100.792 45.025 101.675 44.9333 102.625 44.85C102.575 45.2167 102.517 45.6333 102.45 46.1C102.4 46.55 102.333 47.025 102.25 47.525C102.183 48.025 102.108 48.5417 102.025 49.075C101.942 49.6083 101.842 50.2917 101.725 51.125C101.608 51.9583 101.45 53 101.25 54.25H101.575C102.058 52.9833 102.458 51.9333 102.775 51.1C103.092 50.25 103.35 49.5583 103.55 49.025C103.75 48.4917 103.95 47.975 104.15 47.475C104.367 46.9583 104.567 46.475 104.75 46.025C104.95 45.5583 105.133 45.15 105.3 44.8C105.717 44.7667 106.108 44.725 106.475 44.675C106.842 44.625 107.208 44.575 107.575 44.525C107.942 44.4583 108.308 44.4 108.675 44.35C109.058 44.2833 109.475 44.2083 109.925 44.125C109.758 45.0917 109.6 46.0833 109.45 47.1C109.3 48.1167 109.167 49.1333 109.05 50.15C108.933 51.15 108.817 52.1417 108.7 53.125C108.6 54.1083 108.508 55.0417 108.425 55.925C108.225 57.9917 108.05 60.0083 107.9 61.975L103.55 62.75C103.55 62.6667 103.558 62.4417 103.575 62.075C103.608 61.7083 103.642 61.2583 103.675 60.725C103.725 60.1917 103.783 59.6 103.85 58.95C103.933 58.3 104.008 57.65 104.075 57C104.158 56.35 104.242 55.725 104.325 55.125C104.408 54.5083 104.492 53.9833 104.575 53.55H104.35C104.117 54.25 103.858 54.9917 103.575 55.775C103.292 56.5417 103 57.325 102.7 58.125C102.417 58.925 102.133 59.7083 101.85 60.475C101.567 61.2417 101.317 61.975 101.1 62.675C100.517 62.6917 100.017 62.7167 99.6001 62.75C99.1834 62.7667 98.7001 62.7917 98.1501 62.825L98.9501 53.55H98.5751C98.5418 53.7667 98.4584 54.1333 98.3251 54.65C98.1918 55.15 98.0334 55.7333 97.8501 56.4C97.6834 57.05 97.5001 57.7333 97.3001 58.45C97.1001 59.15 96.9084 59.8083 96.7251 60.425C96.5584 61.025 96.4168 61.525 96.3001 61.925C96.1834 62.3083 96.1168 62.525 96.1001 62.575L91.9751 62.85ZM117.404 62.5C116.987 62.5667 116.529 62.6417 116.029 62.725C115.529 62.8083 115.079 62.8833 114.679 62.95C114.745 62.4 114.812 61.8583 114.879 61.325C114.929 60.8583 114.97 60.3917 115.004 59.925C115.054 59.4583 115.095 59.0583 115.129 58.725H112.954L111.954 62.325C111.587 62.375 111.154 62.4333 110.654 62.5C110.154 62.55 109.687 62.6 109.254 62.65C108.72 62.7167 108.195 62.7833 107.679 62.85C108.345 60.6333 109.004 58.45 109.654 56.3C109.92 55.4 110.195 54.4583 110.479 53.475C110.779 52.4917 111.07 51.5167 111.354 50.55C111.654 49.5667 111.937 48.625 112.204 47.725C112.47 46.825 112.704 46 112.904 45.25C114.037 45.1667 115.187 45.0667 116.354 44.95C117.537 44.8333 118.687 44.675 119.804 44.475C119.754 45.0083 119.695 45.675 119.629 46.475C119.579 47.2583 119.529 48.1167 119.479 49.05C119.429 49.9833 119.379 50.9583 119.329 51.975C119.279 52.9917 119.229 53.9917 119.179 54.975C119.095 57.275 119.004 59.7167 118.904 62.3C118.404 62.3833 117.904 62.45 117.404 62.5ZM113.554 56.225C113.62 56.225 113.737 56.225 113.904 56.225C114.087 56.2083 114.27 56.2 114.454 56.2C114.654 56.1833 114.837 56.175 115.004 56.175C115.17 56.1583 115.287 56.1417 115.354 56.125C115.354 56.025 115.362 55.8583 115.379 55.625C115.412 55.375 115.437 55.1 115.454 54.8C115.487 54.4833 115.52 54.1417 115.554 53.775C115.587 53.4083 115.62 53.05 115.654 52.7C115.72 51.85 115.804 50.9333 115.904 49.95L116.054 47.775L115.679 47.8L115.104 49.95L113.554 56.225ZM132.424 53.475C132.307 55.175 131.974 56.6583 131.424 57.925C130.874 59.175 130.207 60.225 129.424 61.075C128.657 61.925 127.824 62.5583 126.924 62.975C126.04 63.3917 125.199 63.6 124.399 63.6C123.782 63.6 123.19 63.4667 122.624 63.2C122.074 62.9333 121.59 62.5333 121.174 62C120.774 61.45 120.457 60.7667 120.224 59.95C119.99 59.1333 119.874 58.175 119.874 57.075C119.874 54.925 120.182 53.05 120.799 51.45C121.415 49.85 122.19 48.5167 123.124 47.45C124.074 46.3833 125.082 45.5917 126.149 45.075C127.232 44.5583 128.24 44.3 129.174 44.3C129.84 44.3 130.415 44.4167 130.899 44.65C131.399 44.8833 131.807 45.2 132.124 45.6C132.44 45.9833 132.665 46.4417 132.799 46.975C132.949 47.4917 133.024 48.0417 133.024 48.625L129.599 49.275C129.449 48.6083 129.249 48.1333 128.999 47.85C128.749 47.5667 128.465 47.425 128.149 47.425C127.732 47.425 127.274 47.725 126.774 48.325C126.274 48.9083 125.807 49.6667 125.374 50.6C124.94 51.5333 124.574 52.5583 124.274 53.675C123.974 54.7917 123.807 55.8917 123.774 56.975C123.774 58.0083 123.924 58.75 124.224 59.2C124.54 59.6333 124.94 59.85 125.424 59.85C125.757 59.85 126.099 59.7667 126.449 59.6C126.815 59.4333 127.14 59.2 127.424 58.9C127.707 58.5833 127.94 58.225 128.124 57.825C128.324 57.4083 128.432 56.9583 128.449 56.475L125.774 56.875L126.249 54.4C127.032 54.3 127.799 54.2 128.549 54.1C129.182 54.0167 129.849 53.9167 130.549 53.8C131.265 53.6833 131.89 53.575 132.424 53.475ZM131.499 63.025L134.774 45.25L142.674 44.575C142.558 44.9417 142.458 45.3167 142.374 45.7C142.291 46.0167 142.208 46.35 142.124 46.7C142.058 47.0333 141.999 47.3333 141.949 47.6C141.783 47.6167 141.541 47.6333 141.224 47.65C140.924 47.65 140.599 47.6583 140.249 47.675C139.899 47.675 139.541 47.675 139.174 47.675C138.824 47.675 138.516 47.675 138.249 47.675L137.374 52.15C137.891 52.1167 138.374 52.0917 138.824 52.075C139.191 52.0583 139.566 52.05 139.949 52.05C140.333 52.05 140.616 52.0417 140.799 52.025C140.733 52.4917 140.666 52.95 140.599 53.4C140.549 53.85 140.483 54.3083 140.399 54.775C140.233 54.7917 139.958 54.8083 139.574 54.825C139.208 54.825 138.833 54.8333 138.449 54.85C138.016 54.8667 137.541 54.8833 137.024 54.9L136.174 59.5L139.824 58.925L139.574 61.775L131.499 63.025Z" fill="#FFA692"/>
</svg>
