<svg width="11" height="10" viewBox="0 0 11 10" fill="none" xmlns="http://www.w3.org/2000/svg">
<g clip-path="url(#clip0_287_15)">
<path d="M8.42189 4.96783L4.89593 7.96788C4.50913 8.29699 3.98453 8.48188 3.43751 8.48188C2.8905 8.48188 2.36589 8.29699 1.9791 7.96788C1.5923 7.63878 1.375 7.19242 1.375 6.72699C1.375 6.26157 1.5923 5.81521 1.9791 5.4861L6.99326 1.21981C7.12098 1.11119 7.2726 1.02504 7.43945 0.966276C7.60631 0.907511 7.78513 0.877283 7.96571 0.877319C8.14629 0.877356 8.3251 0.907655 8.49192 0.966487C8.65874 1.02532 8.81031 1.11153 8.93797 1.2202C9.06563 1.32888 9.16689 1.45788 9.23595 1.59984C9.30502 1.74181 9.34055 1.89396 9.3405 2.04761C9.34046 2.20126 9.30485 2.35339 9.23571 2.49533C9.16656 2.63727 9.06523 2.76623 8.93751 2.87485L3.91968 7.14426C3.78951 7.25044 3.61551 7.30847 3.4352 7.30652C3.25488 7.30458 3.08268 7.24243 2.95571 7.13348C2.82874 7.02453 2.75717 6.87749 2.75641 6.72406C2.75566 6.57063 2.82579 6.42309 2.95168 6.31323L6.53126 3.26756M3.9238 7.14036L3.91922 7.14426" stroke="#979797" stroke-width="1.25" stroke-linecap="round" stroke-linejoin="round"/>
</g>
<defs>
<clipPath id="clip0_287_15">
<rect width="11" height="9.35932" fill="white"/>
</clipPath>
</defs>
</svg>
